<svg xmlns="http://www.w3.org/2000/svg" viewBox="0 0 1968.99 1173.83"><defs><style>.cls-1{fill:#020000;}</style></defs><g id="Layer_2" data-name="Layer 2"><g id="Layer_8" data-name="Layer 8"><path class="cls-1" d="M1569,1160.13h0c-28.86,23.3-73.25,16.16-99.17-15.93L1171.18,774.34c-16.43-20.36-14.92-48.83,3.37-63.6l38.23-30.87c18.29-14.77,46.45-10.25,62.88,10.11l298.64,369.86C1600.22,1091.93,1597.84,1136.84,1569,1160.13Z"/><path class="cls-1" d="M1386.64,371.44c-.17-2.22-.38-4.44-.6-6.65q-.68-6.82-1.58-13.61c-.3-2.22-.61-4.44-1-6.65q-1-6.82-2.28-13.61-.62-3.33-1.29-6.64-1.38-6.84-3-13.61-.79-3.33-1.65-6.65a405,405,0,0,0-18-54.13c-.91-2.22-1.85-4.44-2.8-6.64q-3-6.85-6.21-13.61-1.59-3.33-3.25-6.65-3.43-6.86-7.15-13.61c-1.22-2.23-2.46-4.44-3.73-6.65A402.56,402.56,0,0,0,1197.73,61.42C1008.27-56.86,758.8.84,640.52,190.3S580,629.22,769.4,747.51s438.93,60.57,557.21-128.89A409.46,409.46,0,0,0,1350.77,574q1.32-2.85,2.59-5.72,3.23-7.23,6.12-14.53,1.33-3.32,2.58-6.65,2.58-6.78,4.87-13.61,1.13-3.32,2.18-6.65,2.17-6.78,4.07-13.61.93-3.32,1.8-6.64,4.39-16.84,7.3-33.87.57-3.32,1.08-6.65,1-6.79,1.85-13.61c.27-2.21.51-4.43.74-6.64q.69-6.79,1.16-13.61c.14-2.22.28-4.43.39-6.65q.35-6.81.47-13.61c0-2.22.06-4.43.06-6.65Q1388,388.32,1386.64,371.44ZM1323.06,425c-.13,2.16-.27,4.31-.45,6.46q-.51,6.63-1.3,13.23c-.25,2.15-.53,4.31-.83,6.46q-.9,6.61-2.09,13.23c-.39,2.15-.8,4.31-1.22,6.46a333,333,0,0,1-8.29,32.92q-1,3.24-2,6.46c-1.45,4.43-3,8.83-4.64,13.23-.81,2.15-1.64,4.31-2.5,6.46q-2.64,6.64-5.59,13.23c-1,2.16-2,4.32-3,6.46q-3.15,6.67-6.61,13.23-1.71,3.24-3.5,6.46-4.27,7.71-9,15.29c-99.46,159.3-309.23,207.81-468.54,108.37S595.66,383.69,695.11,224.38,1004.34,16.56,1163.65,116a339.11,339.11,0,0,1,97.83,92.36c1.52,2.14,3,4.3,4.45,6.47q4.38,6.53,8.43,13.23c1.3,2.14,2.58,4.29,3.81,6.46q3.78,6.54,7.23,13.23,1.68,3.21,3.27,6.45,3.22,6.57,6.15,13.24c.94,2.14,1.87,4.29,2.76,6.46a339,339,0,0,1,11.71,32.92c.66,2.15,1.28,4.31,1.87,6.46,1.23,4.39,2.35,8.8,3.4,13.23q.76,3.23,1.45,6.46,1.42,6.58,2.58,13.23c.38,2.15.73,4.3,1.07,6.46.68,4.39,1.27,8.81,1.77,13.23.25,2.15.48,4.31.68,6.46q1.56,16.38,1.55,32.92c0,2.15,0,4.3-.07,6.46C1323.5,416.14,1323.32,420.56,1323.06,425Z"/><rect class="cls-1" y="269.3" width="45.93" height="279.63" rx="22.11"/><rect class="cls-1" x="101.21" y="299.56" width="45.93" height="197.94" rx="22.11"/><rect class="cls-1" x="202.43" y="134.65" width="45.93" height="567.22" rx="22.11"/><rect class="cls-1" x="303.64" y="8.71" width="45.93" height="567.22" rx="22.11"/><rect class="cls-1" x="404.85" y="241.7" width="45.93" height="567.22" rx="22.11"/><rect class="cls-1" x="499.83" y="136.92" width="45.93" height="550.71" rx="22.11"/><rect class="cls-1" x="1430.89" y="136.92" width="45.93" height="550.71" rx="22.11"/><rect class="cls-1" x="1525.18" y="231.9" width="45.93" height="550.71" rx="22.11"/><rect class="cls-1" x="1619.42" width="45.93" height="571.46" rx="22.11"/><rect class="cls-1" x="1720.63" y="206.34" width="45.93" height="471.43" rx="22.11"/><rect class="cls-1" x="1821.85" y="313.5" width="45.93" height="177.5" rx="22.11"/><rect class="cls-1" x="1923.06" y="254.48" width="45.93" height="276.87" rx="22.11"/><rect class="cls-1" x="778.38" y="193.26" width="413.62" height="7.15" rx="3.57"/><rect class="cls-1" x="949.32" y="215.04" width="242.68" height="7.15" rx="3.57"/><rect class="cls-1" x="1016.42" y="302.19" width="175.57" height="7.15" rx="3.57"/><rect class="cls-1" x="1105.62" y="411.13" width="86.38" height="7.15" rx="3.57"/><rect class="cls-1" x="1063.32" y="454.7" width="128.68" height="7.15" rx="3.57"/><rect class="cls-1" x="984.42" y="432.92" width="207.57" height="7.15" rx="3.57"/><rect class="cls-1" x="1081.32" y="236.83" width="110.68" height="7.15" rx="3.57"/><rect class="cls-1" x="899.66" y="323.98" width="292.34" height="7.15" rx="3.57"/><rect class="cls-1" x="778.38" y="215.04" width="162.64" height="7.15" rx="3.57"/><rect class="cls-1" x="778.38" y="236.83" width="293.62" height="7.15" rx="3.57"/><rect class="cls-1" x="778.38" y="258.62" width="91.57" height="7.15" rx="3.57"/><rect class="cls-1" x="778.38" y="302.19" width="228.94" height="7.15" rx="3.57"/><rect class="cls-1" x="778.38" y="323.98" width="112.6" height="7.15" rx="3.57"/><rect class="cls-1" x="778.38" y="345.77" width="413.62" height="7.15" rx="3.57"/><rect class="cls-1" x="778.38" y="367.55" width="269.87" height="7.15" rx="3.57"/><rect class="cls-1" x="778.38" y="411.13" width="318.81" height="7.15" rx="3.57"/><rect class="cls-1" x="778.38" y="432.92" width="199.66" height="7.15" rx="3.57"/><rect class="cls-1" x="778.38" y="454.7" width="276.77" height="7.15" rx="3.57"/><rect class="cls-1" x="778.38" y="476.49" width="216.68" height="7.15" rx="3.57"/><rect class="cls-1" x="778.38" y="520.06" width="178.38" height="7.15" rx="3.57"/><rect class="cls-1" x="778.38" y="563.64" width="218.21" height="7.15" rx="3.57"/><rect class="cls-1" x="962.21" y="520.06" width="229.79" height="7.15" rx="3.57"/><rect class="cls-1" x="778.38" y="541.85" width="413.62" height="7.15" rx="3.57"/><rect class="cls-1" x="1003.83" y="563.64" width="188.17" height="7.15" rx="3.57"/><rect class="cls-1" x="778.38" y="585.43" width="99.83" height="7.15" rx="3.57"/><path class="cls-1" d="M1381.23,330.92h-3.58a3.32,3.32,0,1,1,0-6.64h2.29Q1380.62,327.6,1381.23,330.92Z"/><path class="cls-1" d="M1337.19,211.73h-69.11a3.15,3.15,0,0,1-3.16-3.15,3.12,3.12,0,0,1,.92-2.22,3.15,3.15,0,0,1,2.24-.93h65.57C1334.86,207.52,1336,209.61,1337.19,211.73Z"/><path class="cls-1" d="M1347,230.91h-79a3.15,3.15,0,0,1-2.24-5.38,3.19,3.19,0,0,1,2.24-.92H1344Q1345.54,227.76,1347,230.91Z"/><path class="cls-1" d="M1355.57,250.09h-87.49a3.15,3.15,0,0,1-2.24-5.37,3.19,3.19,0,0,1,2.24-.92h84.84C1353.81,245.88,1354.7,248,1355.57,250.09Z"/><rect class="cls-1" x="1264.92" y="262.98" width="80.63" height="6.29" rx="3.15"/><path class="cls-1" d="M1374.18,307.64h-106.1a3.15,3.15,0,0,1-3.16-3.15,3.12,3.12,0,0,1,.92-2.22,3.19,3.19,0,0,1,2.24-.92h104.54Q1373.43,304.49,1374.18,307.64Z"/><rect class="cls-1" x="1264.92" y="320.53" width="99.13" height="6.29" rx="3.15"/><path class="cls-1" d="M1381.3,346H1268.08a3.16,3.16,0,0,1-3.16-3.15,3.1,3.1,0,0,1,.92-2.22,3.15,3.15,0,0,1,2.24-.93H1380.4C1380.72,341.8,1381,343.9,1381.3,346Z"/><path class="cls-1" d="M1383.36,365.19H1268.08a3.15,3.15,0,0,1-2.24-5.38,3.19,3.19,0,0,1,2.24-.92h114.71C1383,361,1383.2,363.09,1383.36,365.19Z"/><path class="cls-1" d="M1384.68,397.26c0,2.1,0,4.19-.06,6.29H1268.08a3.15,3.15,0,0,1-3.16-3.14,3.19,3.19,0,0,1,.92-2.24,3.22,3.22,0,0,1,2.24-.91Z"/><path class="cls-1" d="M1384.17,416.44c-.1,2.1-.23,4.2-.36,6.3H1268.08a3.15,3.15,0,1,1,0-6.3Z"/><path class="cls-1" d="M1382.71,435.63c-.22,2.09-.45,4.19-.7,6.28H1268.08a3.15,3.15,0,0,1-2.24-5.37,3.22,3.22,0,0,1,2.24-.91Z"/><path class="cls-1" d="M1380.25,454.8c-.32,2.1-.66,4.21-1,6.3H1268.08a3.15,3.15,0,1,1,0-6.3Z"/><path class="cls-1" d="M1372.32,493.17c-.55,2.11-1.12,4.2-1.71,6.29H1268.08a3.15,3.15,0,0,1-2.24-5.37,3.19,3.19,0,0,1,2.24-.92Z"/><path class="cls-1" d="M1360.08,531.53c-.78,2.11-1.6,4.21-2.44,6.3h-89.56a3.15,3.15,0,0,1-2.24-5.38,3.19,3.19,0,0,1,2.24-.92Z"/><path class="cls-1" d="M1366.76,512.35q-1,3.15-2.06,6.3h-96.62a3.15,3.15,0,0,1-2.24-5.38,3.19,3.19,0,0,1,2.24-.92Z"/><rect class="cls-1" x="1264.92" y="550.72" width="87.89" height="6.29" rx="3.15"/><path class="cls-1" d="M637.73,230.91h79a3.15,3.15,0,1,0,0-6.3H640.81C639.75,226.71,638.73,228.81,637.73,230.91Z"/><path class="cls-1" d="M629.2,250.09h87.49a3.15,3.15,0,1,0,0-6.29H631.85C631,245.88,630.06,248,629.2,250.09Z"/><rect class="cls-1" x="639.21" y="262.98" width="80.63" height="6.29" rx="3.15" transform="translate(1359.05 532.26) rotate(180)"/><path class="cls-1" d="M610.58,307.64H716.69a3.15,3.15,0,1,0,0-6.29H612.14Q611.33,304.49,610.58,307.64Z"/><rect class="cls-1" x="620.7" y="320.53" width="99.13" height="6.29" rx="3.15" transform="translate(1340.54 647.35) rotate(180)"/><path class="cls-1" d="M603.47,346H716.69a3.16,3.16,0,0,0,3.15-3.15,3.16,3.16,0,0,0-3.15-3.15H604.37C604,341.8,603.75,343.9,603.47,346Z"/><path class="cls-1" d="M601.4,365.19H716.69a3.15,3.15,0,1,0,0-6.3H602C601.76,361,601.56,363.09,601.4,365.19Z"/><path class="cls-1" d="M600.09,397.26c0,2.1,0,4.19,0,6.29H716.69a3.15,3.15,0,0,0,3.15-3.14,3.12,3.12,0,0,0-3.15-3.15Z"/><path class="cls-1" d="M600.59,416.44c.1,2.1.23,4.2.37,6.3H716.69a3.15,3.15,0,1,0,0-6.3Z"/><path class="cls-1" d="M602.06,435.63c.21,2.09.44,4.19.7,6.28H716.69a3.15,3.15,0,0,0,2.23-5.37,3.2,3.2,0,0,0-2.23-.91Z"/><path class="cls-1" d="M604.51,454.8c.32,2.1.66,4.21,1,6.3H716.69a3.15,3.15,0,0,0,0-6.3Z"/><path class="cls-1" d="M612.44,493.17c.55,2.11,1.12,4.2,1.71,6.29H716.69a3.15,3.15,0,1,0,0-6.29Z"/><path class="cls-1" d="M624.68,531.53c.78,2.11,1.6,4.21,2.44,6.3h89.57a3.15,3.15,0,1,0,0-6.3Z"/><path class="cls-1" d="M618,512.35q1,3.15,2.07,6.3h96.62a3.15,3.15,0,1,0,0-6.3Z"/><rect class="cls-1" x="631.94" y="550.72" width="87.89" height="6.29" rx="3.15" transform="translate(1351.78 1107.73) rotate(180)"/></g></g></svg>