<svg width="512" height="512" viewBox="0 0 512 512" fill="none" xmlns="http://www.w3.org/2000/svg">
  <!-- Subtle glow/outline effect -->
  <filter id="glow" x="-50%" y="-50%" width="200%" height="200%">
    <feGaussianBlur stdDeviation="4" result="blur" />
    <feComposite in="SourceGraphic" in2="blur" operator="over" />
  </filter>
  
  <g filter="url(#glow)">
    <path d="M208.526 356.129C193.158 356.129 178.837 351.954 166.905 344.155C154.972 336.356 146.062 325.282 140.173 311.662C134.285 298.043 131.341 282.674 131.341 265.557C131.341 248.44 134.285 233.022 140.173 219.403C146.062 205.783 154.972 194.76 166.905 186.96C178.837 179.161 193.158 175.262 208.526 175.262C228.53 175.262 244.945 181.15 257.771 192.926C270.597 204.702 278.248 221.049 280.687 241.947H227.232C226.027 234.148 223.287 228.137 219.011 223.916C214.736 219.694 208.902 217.583 201.897 217.583C193.887 217.583 187.541 220.901 182.879 227.538C178.216 234.174 175.884 247.212 175.884 265.652C175.884 284.092 178.216 296.893 182.879 304.127C187.541 311.36 193.887 314.976 201.897 314.976C208.902 314.976 214.736 312.865 219.011 308.644C223.287 304.422 226.027 298.412 227.232 290.612H280.687C278.248 311.51 270.597 327.858 257.771 339.634C244.945 350.964 228.53 356.129 208.526 356.129Z" fill="white"/>
    <path d="M373.316 354.086C362.57 354.086 353.184 351.422 345.158 346.095C337.132 340.768 330.883 333.47 326.411 324.202C321.939 314.934 319.703 304.496 319.703 292.888C319.703 281.28 321.939 270.797 326.411 261.529C330.883 252.261 337.132 244.963 345.158 239.636C353.184 234.308 362.57 231.645 373.316 231.645C384.063 231.645 393.448 234.308 401.474 239.636C409.5 244.963 415.749 252.261 420.222 261.529C424.694 270.797 426.93 281.28 426.93 292.888C426.93 304.496 424.694 314.934 420.222 324.202C415.749 333.47 409.5 340.768 401.474 346.095C393.448 351.422 384.063 354.086 373.316 354.086ZM373.316 322.158C379.453 322.158 384.153 319.359 387.414 313.762C390.675 308.165 392.306 301.256 392.306 293.034C392.306 284.813 390.675 277.858 387.414 272.171C384.153 266.484 379.453 263.64 373.316 263.64C367.18 263.64 362.48 266.484 359.219 272.171C355.958 277.858 354.327 284.813 354.327 293.034C354.327 301.256 355.958 308.165 359.219 313.762C362.48 319.359 367.18 322.158 373.316 322.158Z" fill="white"/>
    <path fill-rule="evenodd" clip-rule="evenodd" d="M373.316 390.458C390.731 390.458 406.022 385.131 419.19 374.476C432.358 363.821 440.795 349.195 444.504 330.599H410.025C407.731 336.33 404.602 341.383 400.639 345.76C392.612 354.247 383.743 358.49 373.031 358.49C360.488 358.49 349.605 354.022 340.382 345.086C331.159 336.149 325.839 323.879 324.424 308.275H422.512C422.752 306.39 422.873 304.324 422.873 302.08C422.873 292.677 421.097 283.949 417.545 275.897C413.993 267.845 409.036 261.198 402.673 255.956C396.311 250.715 389.083 247.095 380.991 245.098C372.899 243.1 364.584 242.897 356.047 244.488C347.51 246.08 339.551 249.407 332.171 254.47C324.791 259.532 318.473 266.304 313.217 274.784C307.962 283.265 305.334 292.745 305.334 303.226C305.334 314.654 307.667 324.631 312.333 333.156C317 341.681 323.228 348.273 331.018 352.933C338.808 357.594 347.284 360.092 356.447 360.426C365.609 360.761 373.745 359.113 380.853 355.483L390.196 382.562C384.701 385.826 379.127 388.006 373.471 389.1C367.816 390.193 371.103 390.458 373.316 390.458Z" fill="white"/>
  </g>
</svg> 